<?xml version="1.0" standalone="no"?>
<!DOCTYPE svg PUBLIC "-//W3C//DTD SVG 20010904//EN"
 "http://www.w3.org/TR/2001/REC-SVG-20010904/DTD/svg10.dtd">
<svg version="1.0" xmlns="http://www.w3.org/2000/svg"
 width="160.000000pt" height="160.000000pt" viewBox="0 0 160.000000 160.000000"
 preserveAspectRatio="xMidYMid meet">

<g transform="translate(0.000000,160.000000) scale(0.100000,-0.100000)"
fill="#000000" stroke="none">
<path d="M0 800 l0 -800 800 0 800 0 0 800 0 800 -800 0 -800 0 0 -800z m470
275 c17 -20 5 -45 -20 -45 -23 0 -35 22 -26 45 7 19 30 19 46 0z m-20 -70 c24
-25 31 -86 15 -135 l-7 -22 31 23 c37 27 55 17 65 -37 l7 -34 24 29 c14 16 25
36 25 45 0 18 25 22 36 5 3 -6 2 -15 -4 -21 -6 -6 -7 -21 -1 -41 5 -18 9 -45
9 -60 l0 -29 68 38 c165 93 195 105 247 102 37 -2 50 -7 50 -18 0 -14 -14 -20
-123 -49 -50 -14 -84 -44 -76 -66 15 -37 103 -1 241 99 106 76 128 86 189 86
52 0 66 -19 43 -59 -19 -33 -49 -40 -56 -12 -3 12 -12 21 -21 21 -26 0 -96
-47 -122 -82 l-24 -33 24 16 c111 70 130 72 130 18 l0 -31 46 27 c42 25 48 26
62 11 15 -14 14 -17 -3 -31 -11 -8 -49 -29 -84 -47 -60 -30 -64 -31 -77 -14
-7 10 -10 24 -7 32 8 21 -3 17 -60 -21 -28 -19 -61 -35 -73 -35 -24 0 -37 21
-28 45 4 9 -14 3 -51 -17 -76 -41 -128 -43 -161 -5 l-24 28 -49 -26 c-28 -14
-59 -25 -70 -25 -24 0 -41 28 -41 65 l0 27 -31 -27 c-17 -14 -37 -24 -43 -22
-6 2 -14 23 -19 46 l-9 43 -28 -39 c-16 -21 -46 -68 -68 -104 -26 -42 -46 -64
-58 -64 -28 0 -22 38 26 157 49 121 62 204 35 214 -27 11 -82 -22 -111 -66
-29 -44 -36 -47 -53 -26 -22 27 28 96 94 130 45 24 88 20 115 -9z m126 -46 c8
-14 -21 -43 -35 -35 -19 12 -13 46 8 46 11 0 23 -5 27 -11z m379 -369 c-95 -9
-224 -49 -317 -97 -37 -19 -72 -32 -77 -28 -20 12 -11 46 20 77 l30 31 -45 -6
c-25 -4 -58 -10 -73 -13 -21 -5 -25 -4 -17 5 15 16 125 35 157 27 35 -8 34
-21 -3 -36 -28 -11 -61 -50 -44 -50 4 0 31 11 60 25 92 43 220 74 309 73 l80
-1 -80 -7z"/>
</g>
</svg>
